/* XPM */
static char * C:\Users\peter\Documents\src\litecoin\share\pixmaps\bitcoin32_xpm[] = {
"32 32 261 2",
"  	c None",
". 	c #4C4C4C",
"+ 	c #424242",
"@ 	c #444444",
"# 	c #494949",
"$ 	c #515151",
"% 	c #5A5A5A",
"& 	c #595959",
"* 	c #505050",
"= 	c #474747",
"- 	c #434343",
"; 	c #555555",
"> 	c #868686",
", 	c #A9A9A9",
"' 	c #C4C4C4",
") 	c #D5D5D5",
"! 	c #D8D8D8",
"~ 	c #D4D4D4",
"{ 	c #C2C2C2",
"] 	c #A7A7A7",
"^ 	c #828282",
"/ 	c #4F4F4F",
"( 	c #404040",
"_ 	c #4A4A4A",
": 	c #3F3F3F",
"< 	c #575757",
"[ 	c #979797",
"} 	c #CDCDCD",
"| 	c #DDDDDD",
"1 	c #E4E4E4",
"2 	c #ECECEC",
"3 	c #F3F3F3",
"4 	c #F6F6F6",
"5 	c #F4F4F4",
"6 	c #F2F2F2",
"7 	c #EBEBEB",
"8 	c #E2E2E2",
"9 	c #DBDBDB",
"0 	c #CACACA",
"a 	c #949494",
"b 	c #787878",
"c 	c #C6C6C6",
"d 	c #DEDEDE",
"e 	c #FBFBFB",
"f 	c #EAEAEA",
"g 	c #D7D7D7",
"h 	c #BFBFBF",
"i 	c #C9C9C9",
"j 	c #B9B9B9",
"k 	c #E7E7E7",
"l 	c #F1F1F1",
"m 	c #F8F8F8",
"n 	c #E9E9E9",
"o 	c #707070",
"p 	c #464646",
"q 	c #8A8A8A",
"r 	c #E6E6E6",
"s 	c #FAFAFA",
"t 	c #C0C0C0",
"u 	c #B3B3B3",
"v 	c #989898",
"w 	c #D1D1D1",
"x 	c #9E9E9E",
"y 	c #B4B4B4",
"z 	c #CBCBCB",
"A 	c #EDEDED",
"B 	c #D3D3D3",
"C 	c #454545",
"D 	c #898989",
"E 	c #DADADA",
"F 	c #9F9F9F",
"G 	c #ACACAC",
"H 	c #BDBDBD",
"I 	c #B7B7B7",
"J 	c #B1B1B1",
"K 	c #B9B9BA",
"L 	c #D8D8DE",
"M 	c #C0C0C7",
"N 	c #CCCCCC",
"O 	c #3E3E3E",
"P 	c #777777",
"Q 	c #EFEFEF",
"R 	c #B2B2B2",
"S 	c #BBBBBB",
"T 	c #FDFDFD",
"U 	c #D0D0D0",
"V 	c #C8C8C8",
"W 	c #A0A0A0",
"X 	c #8F8F8F",
"Y 	c #E1E1E2",
"Z 	c #A5A565",
"` 	c #DCDC00",
" .	c #BFBF0C",
"..	c #BFBFB0",
"+.	c #C5C5C5",
"@.	c #D2D2D2",
"#.	c #6D6D6D",
"$.	c #A3A3A3",
"%.	c #B8B8B8",
"&.	c #E6E6E5",
"*.	c #BABAB2",
"=.	c #D8D800",
"-.	c #E2E200",
";.	c #D9D90E",
">.	c #E3E3DD",
",.	c #ADADAD",
"'.	c #F9F9F9",
").	c #E0E0E0",
"!.	c #4B4B4B",
"~.	c #969696",
"{.	c #9A9A9A",
"].	c #E1E1E1",
"^.	c #B1B1B3",
"/.	c #C2C248",
"(.	c #E0E000",
"_.	c #B1B18C",
":.	c #B2B2AC",
"<.	c #C5C55E",
"[.	c #C8C818",
"}.	c #B1B1B9",
"|.	c #A6A6A6",
"1.	c #CECECE",
"2.	c #A4A4A4",
"3.	c #BABABA",
"4.	c #999999",
"5.	c #AAAAAA",
"6.	c #BDBDC5",
"7.	c #D2D218",
"8.	c #BABA15",
"9.	c #B6B6BD",
"0.	c #D6D6D7",
"a.	c #BBBBC6",
"b.	c #C6C6C5",
"c.	c #E5E5E5",
"d.	c #858585",
"e.	c #BEBEBE",
"f.	c #D6D6D6",
"g.	c #AFAFAF",
"h.	c #818181",
"i.	c #B7B7B8",
"j.	c #DDDD00",
"k.	c #D6D66C",
"l.	c #8D8D8D",
"m.	c #D9D9D9",
"n.	c #DCDCDC",
"o.	c #A5A5A5",
"p.	c #A1A1A1",
"q.	c #A8A8A8",
"r.	c #D5D580",
"s.	c #E1E100",
"t.	c #C1C16B",
"u.	c #6C6C6C",
"v.	c #DFDFDF",
"w.	c #C7C7C7",
"x.	c #BCBCBC",
"y.	c #C1C1C1",
"z.	c #B6B6BF",
"A.	c #CFCF03",
"B.	c #C3C373",
"C.	c #535353",
"D.	c #CFCFCF",
"E.	c #838383",
"F.	c #CFCFCD",
"G.	c #C0C011",
"H.	c #CACA7E",
"I.	c #585858",
"J.	c #9B9B9B",
"K.	c #8B8B8B",
"L.	c #595960",
"M.	c #9D9D5A",
"N.	c #D2D200",
"O.	c #DFDF00",
"P.	c #89894B",
"Q.	c #808080",
"R.	c #A9A9B0",
"S.	c #CACA3A",
"T.	c #E3E300",
"U.	c #A3A39E",
"V.	c #C3C3C3",
"W.	c #C1C1BB",
"X.	c #CACA17",
"Y.	c #BDBD40",
"Z.	c #C8C8CB",
"`.	c #B5B5B5",
" +	c #E8E8E8",
".+	c #D5D5DD",
"++	c #BDBD77",
"@+	c #DCDC02",
"#+	c #CFCF07",
"$+	c #8A8A8D",
"%+	c #414141",
"&+	c #BABAA2",
"*+	c #CCCC2C",
"=+	c #CBCB0F",
"-+	c #CECEC7",
";+	c #BCBCBB",
">+	c #9C9C9C",
",+	c #D0D0C6",
"'+	c #A5A51F",
")+	c #DCDC08",
"!+	c #ACAC08",
"~+	c #909098",
"{+	c #E3E3E3",
"]+	c #717171",
"^+	c #9C9C90",
"/+	c #DBDB8D",
"(+	c #C8C850",
"_+	c #DADA00",
":+	c #B6B685",
"<+	c #B6B6B5",
"[+	c #7F7F7F",
"}+	c #676767",
"|+	c #919191",
"1+	c #CECECF",
"2+	c #C1C1C8",
"3+	c #D5D555",
"4+	c #BFBF41",
"5+	c #CBCBBB",
"6+	c #A9A967",
"7+	c #CDCD15",
"8+	c #DDDDE6",
"9+	c #A2A2A2",
"0+	c #878787",
"a+	c #757575",
"b+	c #AEAEAE",
"c+	c #C0C0C1",
"d+	c #C8C84D",
"e+	c #ABAB59",
"f+	c #B1B1B8",
"g+	c #D5D5C5",
"h+	c #D0D032",
"i+	c #DDDDE2",
"j+	c #909090",
"k+	c #6E6E6E",
"l+	c #B7B79D",
"m+	c #B1B125",
"n+	c #BABA78",
"o+	c #E0E0E6",
"p+	c #B2B213",
"q+	c #BCBCB2",
"r+	c #CDCDD3",
"s+	c #B2B2B3",
"t+	c #B0B0B0",
"u+	c #616161",
"v+	c #ABABAB",
"w+	c #D8D8DA",
"x+	c #6B6B6C",
"y+	c #8A8A70",
"z+	c #D5D513",
"A+	c #C9C918",
"B+	c #9C9C5A",
"C+	c #F5F5F5",
"D+	c #F7F7F7",
"E+	c #F2F2FA",
"F+	c #BEBEBC",
"G+	c #CBCBCD",
"H+	c #747474",
"I+	c #6B6B6B",
"J+	c #606060",
"K+	c #484848",
"L+	c #EEEEEE",
"                              . .                               ",
"                      + @ # $ % & * = - +                       ",
"                @ - ; > , ' ) ! ! ~ { ] ^ / ( _                 ",
"              : < [ } | 1 2 3 4 5 6 7 8 9 0 a / (               ",
"            @ b c d 2 e f | g h i j k l m n 9 { o :             ",
"          p q g r s | t u v w x y z h i ! A 4 8 B ^ :           ",
"        C D E 2 5 F G H o ~ I c > u J K L M N 3 k ) ^ O         ",
"      : P g 7 Q R N S T t U V W X f Y Z `  ...+.3 r @.#.+       ",
"    @ & ' r 5 $.j U ' g h r B ' %.&.*.=.-.-.;.>.,.'.).h !./     ",
"    @ ~.| e {.U ] z H J t B ,.].].^./.(._.:.<.[.}.|.5 ! X (     ",
"    < z f 1.' } N 2.3.! 4.1.5.' [ 6.7.8.9.Q 0.a.b.d 6 c.+.#     ",
"  + d.9 e ] e.h %.w N f.|.g.h.Q I i.j.k.c.l.m.} n.o.].3 f.P -   ",
"  p |.8 1 p.k j ~.|.E 1.Q 8 ' ].q.r.s.t.Q u.v.4.w.x.a 4 n.F (   ",
"  . h f y.i ~ N 1.@.+.! c e.w.,.z.A.s.B.n { f 0 i t u.n.1 I +   ",
"  C.@.l x.D.N r E.' @.! w y y F.G.(.s.H.,.f.E o.g 2.c y.n 0 -   ",
". I.f.5 J.D.k { 2.D.K.B 8 L.M.N.O.O.-.P.Q.e.E u.f ~ u w.A 1._   ",
"!.< ) 5 y.m.) 1.} ).g.2.R.S.T.O.O.O.s.U.|.i V.J.|.N G J A } _   ",
"  $ U Q p.N V ~ D.h 4 W.X.(.O.O.O.(.Y.Z.S ) v y.g V 2 `. +i -   ",
"  _ e. +j { V 2 r .+++@+O.O.O.O.O.#+$+w.} 8 `.R B ! V.9 8 `.%+  ",
"  @ 2.).f 2.) ^.&+*+T.O.O.O.O.(.=+-+;+H w.B q.~ t B y 3 E >+%+  ",
"  %+Q.m.s , ,+'+)+O.O.O.O.O.O.!+~+`.{+9 f.1.y.x.) e.H 6 ) ]+p   ",
"    * w. +~ ^+/+(+_+(.(.s.-.-.:+<+x.[+1.l ' n d }+$.).].y.-     ",
"    %+|+m.m a @.1+2+3+4+5+6+7+8+i u { V.,.J X 9+B N l ) 0++     ",
"    # / h 8 m a+b+c+d+e+f+g+h+i+J c.u v.j+u 9+x.x.5 | 3.-       ",
"      ( k+w r Q ^ ^ l+m+n+o+p+q+r+s+0 ' F i b+t+3 8 } u+=       ",
"        : Q.) c.'.v+K.w+2.x+y+z+A+B+g +.t { V.C+8 U a+%+        ",
"          : Q.w ].D+f.p.|+F z E+F+G+] p.$.].6 | } H+O           ",
"            O I+e.m.c.D+A y.I R I %.z A 5 8 f.S J+%+            ",
"              %+K+l.+.g | c.7 L+L+n 1 n.) { > + K+              ",
"                $ ( p H+F %.z D.1.0 I >+k+%+-                   ",
"                      p ( %+%+= p %+( + _                       ",
"                                                                "};
