/* XPM */
static char * C:\Users\peter\Documents\src\litecoin\share\pixmaps\bitcoin16_xpm[] = {
"16 16 129 2",
"  	c None",
". 	c #444444",
"+ 	c #4C4C4C",
"@ 	c #434343",
"# 	c #595959",
"$ 	c #A1A1A1",
"% 	c #D5D5D5",
"& 	c #ECECEC",
"* 	c #D3D3D3",
"= 	c #9D9D9D",
"- 	c #565656",
"; 	c #838383",
"> 	c #EAEAEA",
", 	c #E3E3E3",
"' 	c #C4C4C4",
") 	c #C0C0C0",
"! 	c #BFBFBF",
"~ 	c #D8D8D8",
"{ 	c #ECECED",
"] 	c #E5E5E5",
"^ 	c #7D7D7D",
"/ 	c #F0F0F0",
"( 	c #C1C1C1",
"_ 	c #CACACA",
": 	c #B2B2B2",
"< 	c #B9B9B9",
"[ 	c #ABABAB",
"} 	c #BABAB2",
"| 	c #CDCD63",
"1 	c #CFCFD2",
"2 	c #7C7C7C",
"3 	c #E9E9E9",
"4 	c #BBBBBB",
"5 	c #CFCFD3",
"6 	c #CECE31",
"7 	c #C9C94A",
"8 	c #D3D34B",
"9 	c #BCBCC1",
"0 	c #545454",
"a 	c #A0A0A0",
"b 	c #D9D9D9",
"c 	c #BEBEBE",
"d 	c #CFCFCF",
"e 	c #AEAEAE",
"f 	c #B5B5B5",
"g 	c #ACACB7",
"h 	c #D2D217",
"i 	c #C5C5CF",
"j 	c #CFCFD8",
"k 	c #C9C9C9",
"l 	c #959595",
"m 	c #454545",
"n 	c #D1D1D1",
"o 	c #B6B6B6",
"p 	c #D2D2D2",
"q 	c #C8C8C8",
"r 	c #BFBF80",
"s 	c #D1D12C",
"t 	c #C3C3C8",
"u 	c #CECECE",
"v 	c #C3C3C3",
"w 	c #CBCBCB",
"x 	c #3F3F3F",
"y 	c #DBDBDB",
"z 	c #AAAAAA",
"A 	c #C2C2C2",
"B 	c #AEAEB5",
"C 	c #BCBC7B",
"D 	c #D9D900",
"E 	c #C5C52C",
"F 	c #ADADB2",
"G 	c #AFAFAF",
"H 	c #484848",
"I 	c #4B4B4B",
"J 	c #D0D0D0",
"K 	c #CECECD",
"L 	c #C3C3CB",
"M 	c #C7C73C",
"N 	c #E2E200",
"O 	c #E0E000",
"P 	c #C4C46B",
"Q 	c #C2C2C3",
"R 	c #ACACAC",
"S 	c #474747",
"T 	c #D0D0D4",
"U 	c #D2D2AF",
"V 	c #D6D613",
"W 	c #E1E100",
"X 	c #D5D534",
"Y 	c #ADADB4",
"Z 	c #B8B8B8",
"` 	c #9B9B9B",
" .	c #DBDBDC",
"..	c #B9B97B",
"+.	c #D9D908",
"@.	c #C8C81A",
"#.	c #AAAAB6",
"$.	c #DADADA",
"%.	c #E0E0E0",
"&.	c #909090",
"*.	c #B0B0B3",
"=.	c #C2C2D2",
"-.	c #C2C244",
";.	c #BEBEB5",
">.	c #D7D787",
",.	c #C7C7C7",
"'.	c #A2A2A2",
").	c #DFDFDF",
"!.	c #525252",
"~.	c #7B7B7B",
"{.	c #EEEEEE",
"].	c #A4A4A5",
"^.	c #B3B38A",
"/.	c #A8A8A0",
"(.	c #B2B246",
"_.	c #B6B679",
":.	c #CCCCCF",
"<.	c #BCBCBC",
"[.	c #C5C5C5",
"}.	c #E8E8E8",
"|.	c #737373",
"1.	c #7A7A7A",
"2.	c #E4E4E4",
"3.	c #B7B7B6",
"4.	c #C9C9CF",
"5.	c #BCBCBE",
"6.	c #535353",
"7.	c #949494",
"8.	c #CDCDCD",
"            . + + @             ",
"        # $ % & & * = -         ",
"      ; > , ' ) ! ~ { ] ^       ",
"    ; / ( _ : < [ } | 1 & 2     ",
"  # 3 4 ( ! * _ 5 6 7 8 9 , 0   ",
"  a b ' c d e f g h i j k / l   ",
"m * ( n o p ~ q r s t u v : w x ",
"+ & < y z A B C D E F G * c , H ",
"I > ! J K L M N O P Q R ' 4 , S ",
"@ p ! T U V O W X Y * Z * d k x ",
"  `  ...+.O W @.#.A $.% $ %.&.  ",
"  - ] *.=.-.;.>.,.k '.a b ).!.  ",
"    ~.{.].^./.(._.:.<.[.}.|.    ",
"      1.2.~ 3.4.5.<.b %.|.      ",
"        6.7.8.] 2._ &.!.        ",
"            x S S x             "};
