/* XPM */
static char * C:\Users\peter\Documents\src\litecoin\share\pixmaps\bitcoin64_xpm[] = {
"64 64 428 2",
"  	c None",
". 	c #595959",
"+ 	c #585858",
"@ 	c #494949",
"# 	c #4B4B4B",
"$ 	c #484848",
"% 	c #454545",
"& 	c #464646",
"* 	c #4A4A4A",
"= 	c #5A5A5A",
"- 	c #5D5D5D",
"; 	c #5C5C5C",
"> 	c #3B3B3B",
", 	c #363636",
"' 	c #353535",
") 	c #393939",
"! 	c #3F3F3F",
"~ 	c #444444",
"{ 	c #474747",
"] 	c #434343",
"^ 	c #3D3D3D",
"/ 	c #383838",
"( 	c #343434",
"_ 	c #373737",
": 	c #4F4F4F",
"< 	c #606060",
"[ 	c #4C4C4C",
"} 	c #646464",
"| 	c #676767",
"1 	c #656565",
"2 	c #6A6A6A",
"3 	c #737373",
"4 	c #747474",
"5 	c #666666",
"6 	c #626262",
"7 	c #616161",
"8 	c #3A3A3A",
"9 	c #3E3E3E",
"0 	c #515151",
"a 	c #333333",
"b 	c #535353",
"c 	c #717171",
"d 	c #888888",
"e 	c #A5A5A5",
"f 	c #B4B4B4",
"g 	c #C9C9C9",
"h 	c #D0D0D0",
"i 	c #CFCFCF",
"j 	c #C7C7C7",
"k 	c #B2B2B2",
"l 	c #A2A2A2",
"m 	c #868686",
"n 	c #6F6F6F",
"o 	c #636363",
"p 	c #5E5E5E",
"q 	c #4D4D4D",
"r 	c #404040",
"s 	c #939393",
"t 	c #BFBFBF",
"u 	c #D1D1D1",
"v 	c #D4D4D4",
"w 	c #D5D5D5",
"x 	c #D8D8D8",
"y 	c #DADADA",
"z 	c #DCDCDC",
"A 	c #DBDBDB",
"B 	c #D9D9D9",
"C 	c #D7D7D7",
"D 	c #CECECE",
"E 	c #BABABA",
"F 	c #919191",
"G 	c #6C6C6C",
"H 	c #525252",
"I 	c #AAAAAA",
"J 	c #D2D2D2",
"K 	c #DEDEDE",
"L 	c #E1E1E1",
"M 	c #E4E4E4",
"N 	c #E7E7E7",
"O 	c #E9E9E9",
"P 	c #EBEBEB",
"Q 	c #EAEAEA",
"R 	c #E8E8E8",
"S 	c #E6E6E6",
"T 	c #E3E3E3",
"U 	c #E0E0E0",
"V 	c #DDDDDD",
"W 	c #D3D3D3",
"X 	c #CDCDCD",
"Y 	c #727272",
"Z 	c #5F5F5F",
"` 	c #6E6E6E",
" .	c #ACACAC",
"..	c #EEEEEE",
"+.	c #F1F1F1",
"@.	c #F5F5F5",
"#.	c #F8F8F8",
"$.	c #F9F9F9",
"%.	c #FBFBFB",
"&.	c #FCFCFC",
"*.	c #FAFAFA",
"=.	c #F7F7F7",
"-.	c #F0F0F0",
";.	c #A7A7A7",
">.	c #6B6B6B",
",.	c #555555",
"'.	c #8F8F8F",
").	c #EDEDED",
"!.	c #F4F4F4",
"~.	c #FEFEFE",
"{.	c #E2E2E2",
"].	c #F3F3F3",
"^.	c #FDFDFD",
"/.	c #F2F2F2",
"(.	c #8C8C8C",
"_.	c #3C3C3C",
":.	c #EFEFEF",
"<.	c #CACACA",
"[.	c #BCBCBC",
"}.	c #C0C0C0",
"|.	c #7E7E7E",
"1.	c #999999",
"2.	c #C3C3C3",
"3.	c #ECECEC",
"4.	c #ADADAD",
"5.	c #575757",
"6.	c #CBCBCB",
"7.	c #A8A8A8",
"8.	c #E5E5E5",
"9.	c #C6C6C6",
"0.	c #909090",
"a.	c #B3B3B3",
"b.	c #BEBEBE",
"c.	c #C8C8C8",
"d.	c #D6D6D6",
"e.	c #C2C2C2",
"f.	c #707070",
"g.	c #696969",
"h.	c #7F7F7F",
"i.	c #A6A6A6",
"j.	c #5B5B5B",
"k.	c #969696",
"l.	c #8D8D8D",
"m.	c #B1B1B1",
"n.	c #898989",
"o.	c #777777",
"p.	c #414141",
"q.	c #AEAEAE",
"r.	c #838383",
"s.	c #B9B9B9",
"t.	c #8B8B8B",
"u.	c #A3A3A3",
"v.	c #2B2B2B",
"w.	c #CCCCCC",
"x.	c #929292",
"y.	c #828282",
"z.	c #BDBDBD",
"A.	c #C1C1C1",
"B.	c #7D7D7D",
"C.	c #B0B0B0",
"D.	c #B6B6B6",
"E.	c #BCBCC2",
"F.	c #CCCCC1",
"G.	c #A1A1A4",
"H.	c #CCCCCE",
"I.	c #9D9D9D",
"J.	c #545454",
"K.	c #B5B5B5",
"L.	c #BBBBBB",
"M.	c #89898A",
"N.	c #BABA93",
"O.	c #CBCB00",
"P.	c #E0E000",
"Q.	c #CCCC01",
"R.	c #9E9E36",
"S.	c #E9E9F0",
"T.	c #FFFFFF",
"U.	c #686868",
"V.	c #9A9A9A",
"W.	c #8B8B79",
"X.	c #D9D900",
"Y.	c #DFDF00",
"Z.	c #C8C81E",
"`.	c #D7D700",
" +	c #C8C85A",
".+	c #A3A3A8",
"++	c #9F9F9F",
"@+	c #F6F6F6",
"#+	c #DFDFDF",
"$+	c #9B9B9B",
"%+	c #9E9E9E",
"&+	c #818188",
"*+	c #B2B200",
"=+	c #E2E200",
"-+	c #BDBD70",
";+	c #E2E2E5",
">+	c #878787",
",+	c #565656",
"'+	c #848484",
")+	c #C4C4C4",
"!+	c #C8C8C9",
"~+	c #B8B866",
"{+	c #E5E500",
"]+	c #E3E300",
"^+	c #BEBE74",
"/+	c #FEFEFF",
"(+	c #C5C5C5",
"_+	c #A0A0A0",
":+	c #B8B8B8",
"<+	c #D0D0D9",
"[+	c #CFCF00",
"}+	c #CDCD1F",
"|+	c #69695F",
"1+	c #8F8F8C",
"2+	c #C2C286",
"3+	c #C1C11C",
"4+	c #CCCC9B",
"5+	c #A1A1A1",
"6+	c #979797",
"7+	c #808080",
"8+	c #787878",
"9+	c #8A8A8A",
"0+	c #B7B7B7",
"a+	c #8A8A5A",
"b+	c #DBDB00",
"c+	c #AEAEA9",
"d+	c #C2C2C9",
"e+	c #B7B79B",
"f+	c #A8A820",
"g+	c #CCCC00",
"h+	c #7A7A83",
"i+	c #ABABAB",
"j+	c #DBDBDC",
"k+	c #BABA4D",
"l+	c #B3B32C",
"m+	c #CECED1",
"n+	c #C1C1C0",
"o+	c #CACACD",
"p+	c #9A9AA4",
"q+	c #E2E2E1",
"r+	c #9C9C9C",
"s+	c #6D6D6D",
"t+	c #7C7C7C",
"u+	c #C0C0C5",
"v+	c #CDCD2D",
"w+	c #7E7E4A",
"x+	c #AFAFAF",
"y+	c #818181",
"z+	c #D5D5DF",
"A+	c #DADA00",
"B+	c #A9A9A9",
"C+	c #989898",
"D+	c #959595",
"E+	c #A5A57D",
"F+	c #D2D201",
"G+	c #CFCFDA",
"H+	c #EDEDF0",
"I+	c #CBCB44",
"J+	c #C8C807",
"K+	c #D4D4DD",
"L+	c #797979",
"M+	c #A4A4A4",
"N+	c #CDCD17",
"O+	c #ABABB3",
"P+	c #767676",
"Q+	c #7B7B7B",
"R+	c #CDCDCE",
"S+	c #A0A035",
"T+	c #E1E100",
"U+	c #C2C213",
"V+	c #B3B3BA",
"W+	c #7A7A7A",
"X+	c #BFBFB2",
"Y+	c #BDBD0F",
"Z+	c #E6E6ED",
"`+	c #424242",
" @	c #848471",
".@	c #C2C21B",
"+@	c #C0C0C6",
"@@	c #DEDEE4",
"#@	c #C5C589",
"$@	c #D3D300",
"%@	c #A8A805",
"&@	c #F1F1F7",
"*@	c #9D9D13",
"=@	c #B7B721",
"-@	c #606065",
";@	c #7A7A81",
">@	c #8A8A41",
",@	c #DBDB02",
"'@	c #AAAA30",
")@	c #7B7B7C",
"!@	c #E8E8E7",
"~@	c #CCCCD0",
"{@	c #AFAF1A",
"]@	c #939357",
"^@	c #888887",
"/@	c #65655E",
"(@	c #C5C507",
"_@	c #D4D402",
":@	c #BABAC1",
"<@	c #D0D0D1",
"[@	c #97977D",
"}@	c #D2D200",
"|@	c #8E8E39",
"1@	c #4E4E4E",
"2@	c #C7C7CE",
"3@	c #B0B065",
"4@	c #DCDC00",
"5@	c #CACA0D",
"6@	c #BFBFC8",
"7@	c #BFBFB9",
"8@	c #CCCC32",
"9@	c #87876A",
"0@	c #E5E5E4",
"a@	c #848438",
"b@	c #D8D800",
"c@	c #969650",
"d@	c #D4D4D5",
"e@	c #1A1A1A",
"f@	c #949494",
"g@	c #B0B0A8",
"h@	c #C8C81F",
"i@	c #E4E400",
"j@	c #CBCB7D",
"k@	c #A8A8AC",
"l@	c #D8D8D3",
"m@	c #AEAE79",
"n@	c #9F9F4B",
"o@	c #99996D",
"p@	c #DFDFE1",
"q@	c #5B5B47",
"r@	c #97974A",
"s@	c #BFBF43",
"t@	c #CCCC15",
"u@	c #8A8A84",
"v@	c #F1F1F2",
"w@	c #8C8C53",
"x@	c #DEDE00",
"y@	c #CACA08",
"z@	c #2A2A25",
"A@	c #ADAD74",
"B@	c #C4C426",
"C@	c #C8C81C",
"D@	c #D0D000",
"E@	c #C3C30D",
"F@	c #ADADB5",
"G@	c #232323",
"H@	c #909091",
"I@	c #DFDFE4",
"J@	c #F1F1F8",
"K@	c #D6D6DF",
"L@	c #9E9E6D",
"M@	c #C2C21C",
"N@	c #A9A97A",
"O@	c #B5B5BC",
"P@	c #C0C0AD",
"Q@	c #D0D072",
"R@	c #C5C51A",
"S@	c #C6C662",
"T@	c #B1B189",
"U@	c #BCBC81",
"V@	c #A4A444",
"W@	c #BDBD0C",
"X@	c #C0C01B",
"Y@	c #D0D0D7",
"Z@	c #8E8E8E",
"`@	c #DFDFBD",
" #	c #B0B000",
".#	c #A6A6AF",
"+#	c #9E9E9F",
"@#	c #BBBB9B",
"##	c #E7E700",
"$#	c #B0B06D",
"%#	c #B6B69F",
"&#	c #868629",
"*#	c #E8E8E9",
"=#	c #A2A245",
"-#	c #E6E600",
";#	c #C8C8A2",
">#	c #A9A9B6",
",#	c #D1D100",
"'#	c #D9D90F",
")#	c #919150",
"!#	c #939397",
"~#	c #AAAAAC",
"{#	c #E5E5E8",
"]#	c #C6C600",
"^#	c #C0C054",
"/#	c #BBBBBC",
"(#	c #B2B2B6",
"_#	c #C1C13A",
":#	c #E8E800",
"<#	c #C3C300",
"[#	c #9E9E69",
"}#	c #CBCBCC",
"|#	c #F8F8FA",
"1#	c #B1B143",
"2#	c #D1D104",
"3#	c #D9D9D8",
"4#	c #B2B2B7",
"5#	c #DBDBA6",
"6#	c #2B2B30",
"7#	c #DCDCE6",
"8#	c #A1A1A5",
"9#	c #606045",
"0#	c #C1C15C",
"a#	c #BABAC3",
"b#	c #B0B0B2",
"c#	c #828278",
"d#	c #B2B233",
"e#	c #C7C712",
"f#	c #A5A52D",
"g#	c #B2B273",
"h#	c #CDCD9A",
"i#	c #646467",
"j#	c #757575",
"k#	c #848486",
"l#	c #D0D084",
"m#	c #D4D400",
"n#	c #B9B900",
"o#	c #939395",
"p#	c #DDDDE1",
"q#	c #C7C7BA",
"r#	c #B9B9A9",
"s#	c #D2D2CB",
"t#	c #858585",
"u#	c #505050",
"                                                                                                                                ",
"                                                    . + @ # $ % & * # # = -                                                     ",
"                                            ; # > , ' ) ! ~ @ * * { ] ^ / ( _ ! : <                                             ",
"                                        [ ) ( ! : - } } | 1 2 3 4 2 } 5 6 7 + $ 8 ( 9 0                                         ",
"                                    $ a > b 1 1 c d e f g h h h h h i j k l m n o p @ _ _ q                                     ",
"                                $ ( r ; | n s t u u v w x y y z A A B C v u u D E F G 6 H / / H                                 ",
"                            + ) > . | 4 I u J w y K L M N O O P Q O R S T U V B W h X e Y 6 q ' r Z                             ",
"                          $ a q 2 `  .J J B U M O ..+.@.#.$.%.&.&.%.*.=.@.-.P N T K C u h ;.>.< ! ' ,.                          ",
"                        ! / - | '.D J y U N ).!.*.&.~.#.Q U V y y R {.].$.^.^.#./.P M K C i g (.o q a *                         ",
"                      _.r 5 G f J x U R :.=.&.~.U <.t [.}.h |.J 1.2.W H g J z 3.^.%.!.3.M V v i 4.2 5.' ~                       ",
"                    / ] 2 4 g J A M 3.=.^.=.6.7.l 8.9.0.a.J g >.}.1.E 6.A b.B c.2.d.#.&.].O U x i e.f.- _ ]                     ",
"                  _.] g.h.X v K R /.%.%.6.k i.T j.R k.l.B T :.} m.m.b.U R n.M 1.N N w {.^.#...M A u j o.- , &                   ",
"                r p.2 h.h d.L Q @.~.S q.r.c.X s.7 t.h f 6.D M u.v.s.I k.e l J I /.K g w j @.^.-.S z J <.o.; ' #                 ",
"              $ ) | 4 w.d.U 3.=.~.9.n x.y.P z.f , A.w.T B.z w  .l.C.q...D.v l }.E.F.G.H.y I.W ~./.N A u j f.,.( J.              ",
"            + ' - G c.v U Q $.~.[.K.m.9.T a.@.#.m.I L.w w.q.e a.i |.M 3.R L M.N.O.P.Q.R.S.q.A g T.].S A i A.g.* _ 6             ",
"            / q U.a.u K O =.^.f m.s.e.:.^.; =.$.3.k !.L.s.T  .m G V.K N u u W.X.Y.Y.Z.`. +.+E [.g T.+.8.y D I 7 _.&             ",
"          { _.>.l.u A N @.~.E ++}.6.;.].@+G M +. .V -.#+<.c.$+2.%+k.v 3.@+&+*+Y.Y.Y.Y.Y.=+-+;+x ;.h T.:.{.d.X >+; ( ,+          ",
"          ( j.G w.C T /.^.6.k.I 1.z.m.@+e.M '+~.'.+.-.C @+t t R #.)+U L !+~+=+Y.Y.{+Y.]+Y.Y.^+/+V.)+T %.P #+u (+g.& 9           ",
"        { p.g.7.u #+3.%.N y.$+@+Y x.v J u _+1.@.(+:.].u ;.^.s.8.*.A :+U <+[+Y.Y.}+|+1+2+3+=+P.4+0.3.r &.@.N B w.5+- ' b         ",
"        ( p Y u x S @+^.6+7+q.!.b.3.t t z ;.k. .8+w.j K.i.r.O /.D 2.9+0+a+]+Y.b+c+R j [.d+e+f+g+h+9.++z &.:.{.W 6.` { 9         ",
"      q 9 U.;.J U ..%.e.:+i+K.b.E S s.#+s.{.;.8.] A U 7.u u.0.3.6+@ d.j+k+P.Y.l+m+X O h 3.n+o+p+q+'.g U 3.#.R y w.r+; ( =       ",
"      ) ,+s+D x 8.@+%.y.b.S M V r+T 3 1.2 S b.T.f.).-.s.: C z.V i (+t+u+v+Y.]+w+T n @.-.v u ]. .B e.h :.M *.-.U W j | 9 $       ",
"    p ' 5 '.h K 3.&.b.[. .w P t x+Q C.Q v I 9.-.E <.8+3.2 y+w.].6.i.6+z+O.Y.A+y f U H &.Q }.C J 5+T.B+U #+:.=.S B 6.>+H )       ",
"    $ p.5 E W T /.T.t.B+W ;.L.C+8.6 2.W T c.B e.z.>.!.g.%+D+3.].N F w.E+{+Y.F+G++.3.@ z.#.z.K.e.[.^.4 E j K ~.3.K D q.; ' +     ",
"    > H n D B N #.O I.x.L M 0+x+q.1 >+[.z V g i S N #+y n.(+u {.L.C+H+I+Y.Y.J+K+#+S * y.X w.l ++8.m.L+$.f.K @+-.{.W g o 8 *     ",
"    , < '+u V 3.&.4.J n.z P 4.B P ` z.M+m.+.K w.P P +.6.K K D +.e._+0+`.Y.Y.N+O+O /.y+6+v -.s C.8.1.P+T.g.q.).@+S d.6.Q+$ !     ",
"  < ' U.r+u #+-.T.x.)+A.+.f k B i d.D.T 8+..R 8.I.$.r+..a.m.6.3 #+R+S+T+Y.Y.U+V+:.T D e.^.g c.E w K.D+x |.U.v ~.Q y w.k.H )     ",
"  ,.> 1 m.v T ].T.W+T 0+%.C.M+%.q.d.L 9.h L :+W J b.M r+Q J j :+2 X+Y.Y.Y.Y.Y+Z+D ].u k R -.X u O i.B D.L+Y x.T.).V D %+j.' }   ",
"  # `+g.A.d.8.@+@.o.T j {.D d.U l W+u y A.#+/.v s.O O 4.a.b.M x+ @O.Y.Y.Y.Y..@+@)+u =.A }.D d.M+K i X B.9.f n.@.:.#+u s.. ' ,+  ",
"  ] { 5 D C S #.V  .e T m.B Q S f . F i w c.h c.y )+s C+D. .@@#@$@Y.Y.Y.Y.Y.%@&@F u.A.t :.T i.|.e.M W d )+b.+++.+.L J b.; , Z   ",
"  @ [ 5 D B N *.C y+J 8.O w.v )+s i+%+y x.j x B -.D.7+`+s.p *@T+Y.Y.Y.Y.Y.Y.=@-@u.c J F w V >+8+/.B w s.<.C+v V ].L W }.6 _ j.  ",
"  { q s+D B O $.w.` E z.!.M V ++x (./.z.s 7 <.c.#+R ; ;@>@,@P.Y.Y.Y.Y.Y.Y.Y.'@)@: x+X t C./.G g.M 8.T.A.g B+F W ].{.v 9.| / J.  ",
"  { q G D B R $.c.s.K m.B :.R U -.I.-.^.Q+q. .r+z !@~@{@]+Y.Y.Y.Y.Y.Y.Y.Y.]+]@y+M+4.D.q.u W W+ .4.t O w.w.d m W ].{.W (+| / ,+  ",
"  @ * 1 D x N $.W K.O y x+{.y I.2.v :+w.@+i.%+:+^@/@(@P.Y.Y.Y.Y.Y.Y.Y.Y.Y._@:@X 0.0+y B d w M+a.B+F i I h s V.B /.{.J }.7 , j.  ",
"  % % 5 X C 8.=.{.7 W !.s.w.t 3.(.Q >+i P :.t <@[@}@Y.Y.Y.Y.Y.Y.Y.Y.Y.Y.]+|@6.[.}.K.#+B+i+3  .j M 4.C k $.C W+/.+.#+J b.. , <   ",
"  1@! U.b.v M @.*.,+y+S 9.d.L 2.K S #.E O $.2@3@4@Y.Y.Y.Y.Y.Y.Y.Y.Y.Y.Y.5@6@;.O i 4.L M N 3 )+)+3.w y 9.U V y.%...K h 0+5.' 5.  ",
"  H ) } C.J {./.T.7 [.0+L.W !.U M x +.f Q 7@8@=+Y.Y.Y.Y.Y.Y.Y.Y.Y.Y.Y.T+9@i w.J <.K.i !.9.e.t b.w @.Q q.T.e i+~.P z X %+5., 1   ",
"  o ( 1 1.h K ..T.d D.C 8. .u %.K &.0@2@a@b@Y.Y.Y.Y.Y.Y.Y.Y.Y.Y.Y.Y.=+c@d@e@i.c.+.e.w.P 1@T.x.e.e.2.%.i A f@s.%.R x <.s 1@>     ",
"    _ j.y+h A O *.s.V.T v C (.).L <.g@h@i@Y.Y.Y.Y.Y.Y.Y.Y.Y.Y.Y.Y.Y.j@k@%+6.6+z.D+x D+$.1 z.z.y (+I.@+w A.x+N !.M w <.8+] %     ",
"    ! # s+w.d.8.@.-.7 )+j B Q+l@m@n@A+Y.Y.Y.Y.Y.Y.Y.Y.Y.Y.Y.Y.Y.b@o@p@d.3.x.B g *.D.e.:.-.e e.R <.w j }.E u.#.:.U u (+7 _ :     ",
"    1@8 } f J L :.T.'+(+R J q@r@s@=+Y.Y.Y.Y.Y.Y.Y.Y.Y.Y.Y.Y.Y.t@u@N '.i :.E x !.0+L 2.O f [.4.)+/.U K.B l <.^.O z w.7.,+' ;     ",
"      ( 7 9+X A O *.h l v@w@x@y@P.Y.Y.Y.Y.Y.Y.Y.Y.Y.Y.Y.Y.Y.]+z@P+; 1.N K ..i+-.g T.I N <.X 9+T.y+N I E i+Q ].M d.g r.$ 9       ",
"      ^ # 2 <.w T ].T.y.w A@B@C@D@i@Y.Y.Y.Y.Y.Y.Y.Y.Y.Y.Y.Y.E@F@G@..$+w + e.X %.N P 4.-.=.D c.T.[ 1 s _+;.~.3.K h 2.< / :       ",
"      J._ } ++i V P *.J ` H@I@J@K@L@M@T+T+Y.Y.T+]+]+T+Y.Y.T+N@e.:.d.$.Q+'+m 5 &.{.*.i+J K M (+j (.C+D.4.y !.8.C <.6+b , Z       ",
"        _ H n D w T +.T.>+'.U X K.v O@P@Q@R@]+S@T@U@V@W@Y.X@Y@u V.&.g Z@_+a.D+O 8.M+M l.` g 1._+++$.K.(+&.P K h c.5 ^ $         ",
"        1@/ } 5+D A N @.!.2 x+i 6.#+w t `@4@ #.#3.g +#@###$#v -.I ..U _+M+^.1.&.[.h.8+<.@ D |.K B+%.6.@.-.T C g $+b ' =         ",
"          _ q 2 j W #+).%.d.: 7+:+m.&.$+%#=+&#<.2.i *#=#-#;#d.P D.<.x X y+P W =.r+Z@H *.Q+j L+).l x R @.N A D }.o 8 $           ",
"          0 ' 7 m D C T -.~.E W+6.r.q.q.>#,#'#)#!#~#K {#]#^#/#..f B+i T.x.T w 6.V.d I 9.V.a.z.}.q.K $.Q #+J <.7+q / p           ",
"            p.! 1 7.X y 8.+.T.C.l.9+* 2.(#_#]+:#<#[#}#|#1#2#3#B+N w :+u W c.B+D.C+L+e.B+4.i u y+u &.3.L v <._+5.( 0             ",
"              , q U.t h z S /.T.z.,.' h K.4#5#6#7#8#X A 9#-#0#a#b#L.-.Z 9.s.E P L.j /.s.W+g x+B &...{.C 6.:+p > `+              ",
"              H ( ,+s+(+u z S +.~.K G h {.+ O X [.e o D.c#d#i@e#f#g#h#i#5+&.7+!.0+S L x e.;.8.$.).{.C X t | ] _.-               ",
"                * ' ; j#<.u A 8.:.*.#.l.r+1 i+x W+0+'+^ 4 k#l#m#P.{+n#o#9.N 2.V f.M $+z.0+$.@+3.{.x X )+G * , .                 ",
"                  { , ; j#9.h B T P @.T.x B.3 2.4. .j j.M s T.p#q#r#s#4.A C.D x.,+(+7.K ~.+.R #+w w.t >.* ' H                   ",
"                    & , j.G }.D d.#+N :.$.T.x l.7+>+B W+P  .N L M D+=.5+a.U.b.2 q.A T.@.P M z J g :+1 @ ' J.                    ",
"                      $ a b 5 7.w.u y {.R -.=.T.=.2.'.j#8+n.D+t.x+|.t#t+'+i.(+=.~.@.).8.#+d.D <._+p ] , J.                      ",
"                        1@( { Z m (+X v A L N )./.#.~.T.~...M y B 8...^.T.&.@+-.P 8.#+x u <.}.y+,+8 ^ =                         ",
"                          J.) ) + 5 ++6.D v B #+T N P ..-.].!.@.@.!.+.:.).Q S L z C J 6.g V.7 # ( % p                           ",
"                              { ' p.= G $+j X i v x A K U {.T T T T L U V B w W D 6.)+6+} u#) ) H                               ",
"                                ,+`+( `++ } m q.g X D i J W v w v W W h D w.w.9.I y.p u#8 ' # <                                 ",
"                                    5.p., 8 [ + 7 W+k._+s.t e.9.(+e.t :+++f@o.p H ~ , ) * -                                     ",
"                                        j.q _.' _ `+q ,.,+5.p o o - ,.J.H @ 9 ' _ `+J.<                                         ",
"                                              - : ] _._ ' ( ' , ' ' ' , ) ! # b Z                                               ",
"                                                      | . 6 Z . = Z o . g.                                                      ",
"                                                                                                                                "};
